<svg xmlns="http://www.w3.org/2000/svg" xmlns:xlink="http://www.w3.org/1999/xlink" id="terminal" baseProfile="full" viewBox="0 0 560 138" width="560" version="1.1">
    <defs>
        <termtosvg:template_settings xmlns:termtosvg="https://github.com/nbedos/termtosvg">
            <termtosvg:screen_geometry columns="70" rows="8"/>
            <termtosvg:animation type="css"/>
        </termtosvg:template_settings>
        <style type="text/css" id="generated-style"><![CDATA[#screen {
                font-family: 'DejaVu Sans Mono', monospace;
                font-style: normal;
                font-size: 14px;
            }

        text {
            dominant-baseline: text-before-edge;
            white-space: pre;
        }
    
            :root {
                --animation-duration: 17000ms;
            }

            @keyframes roll {
                0.000%{transform:translateY(0px)}
2.429%{transform:translateY(-170px)}
2.447%{transform:translateY(-340px)}
4.941%{transform:translateY(-510px)}
4.953%{transform:translateY(-680px)}
7.371%{transform:translateY(-850px)}
7.388%{transform:translateY(-1020px)}
9.841%{transform:translateY(-1190px)}
9.865%{transform:translateY(-1360px)}
12.406%{transform:translateY(-1530px)}
12.418%{transform:translateY(-1700px)}
14.800%{transform:translateY(-1870px)}
14.806%{transform:translateY(-2040px)}
17.335%{transform:translateY(-2210px)}
17.341%{transform:translateY(-2380px)}
19.776%{transform:translateY(-2550px)}
19.782%{transform:translateY(-2720px)}
22.159%{transform:translateY(-2890px)}
22.165%{transform:translateY(-3060px)}
24.612%{transform:translateY(-3230px)}
24.618%{transform:translateY(-3400px)}
27.024%{transform:translateY(-3570px)}
27.035%{transform:translateY(-3740px)}
29.435%{transform:translateY(-3910px)}
29.453%{transform:translateY(-4080px)}
31.871%{transform:translateY(-4250px)}
31.888%{transform:translateY(-4420px)}
34.259%{transform:translateY(-4590px)}
34.276%{transform:translateY(-4760px)}
36.653%{transform:translateY(-4930px)}
36.676%{transform:translateY(-5100px)}
39.082%{transform:translateY(-5270px)}
39.100%{transform:translateY(-5440px)}
41.506%{transform:translateY(-5610px)}
41.529%{transform:translateY(-5780px)}
43.918%{transform:translateY(-5950px)}
46.388%{transform:translateY(-6120px)}
46.394%{transform:translateY(-6290px)}
48.865%{transform:translateY(-6460px)}
48.894%{transform:translateY(-6630px)}
51.288%{transform:translateY(-6800px)}
51.306%{transform:translateY(-6970px)}
53.700%{transform:translateY(-7140px)}
53.712%{transform:translateY(-7310px)}
56.112%{transform:translateY(-7480px)}
56.129%{transform:translateY(-7650px)}
58.529%{transform:translateY(-7820px)}
58.547%{transform:translateY(-7990px)}
60.941%{transform:translateY(-8160px)}
60.965%{transform:translateY(-8330px)}
63.359%{transform:translateY(-8500px)}
63.371%{transform:translateY(-8670px)}
65.771%{transform:translateY(-8840px)}
65.788%{transform:translateY(-9010px)}
68.200%{transform:translateY(-9180px)}
68.218%{transform:translateY(-9350px)}
70.753%{transform:translateY(-9520px)}
70.771%{transform:translateY(-9690px)}
73.282%{transform:translateY(-9860px)}
73.294%{transform:translateY(-10030px)}
75.676%{transform:translateY(-10200px)}
75.688%{transform:translateY(-10370px)}
78.071%{transform:translateY(-10540px)}
78.076%{transform:translateY(-10710px)}
80.453%{transform:translateY(-10880px)}
80.465%{transform:translateY(-11050px)}
82.982%{transform:translateY(-11220px)}
82.994%{transform:translateY(-11390px)}
85.371%{transform:translateY(-11560px)}
87.741%{transform:translateY(-11730px)}
87.753%{transform:translateY(-11900px)}
90.206%{transform:translateY(-12070px)}
90.218%{transform:translateY(-12240px)}
92.588%{transform:translateY(-12410px)}
92.606%{transform:translateY(-12580px)}
94.118%{transform:translateY(-12750px)}
100.000%{transform:translateY(-12750px)}
            }

            #screen_view {
                animation-duration: 17000ms;
                animation-iteration-count:infinite;
                animation-name:roll;
                animation-timing-function: steps(1,end);
                animation-fill-mode: forwards;
            }
        ]]></style>
        <style type="text/css" id="user-style">
            /* The colors defined below are the default 16 colors used for rendering text of the terminal. Adjust
               them as needed.
               PowerShell colors based on https://en.wikipedia.org/wiki/ANSI_escape_code#Colors */
            .foreground {fill: #cccccc;}
            .background {fill: #0c0c0c;}
            .color0 {fill: #0c0c0c;}
            .color1 {fill: #c50f1f;}
            .color2 {fill: #13a10e;}
            .color3 {fill: #c19c00;}
            .color4 {fill: #0037da;}
            .color5 {fill: #881798;}
            .color6 {fill: #3a96dd;}
            .color7 {fill: #cccccc;}
            .color8 {fill: #767676;}
            .color9 {fill: #e74856;}
            .color10 {fill: #16c60c;}
            .color11 {fill: #f9f1a5;}
            .color12 {fill: #3b78ff;}
            .color13 {fill: #b4009e;}
            .color14 {fill: #61d6d6;}
            .color15 {fill: #f2f2f2;}
        </style>
    </defs>
    <svg id="screen" width="560" height="136" viewBox="0 0 560 136" preserveAspectRatio="xMidYMin slice">
    <rect class="background" height="100%" width="100%" x="0" y="0"/><defs><g id="g1"><text x="0" textLength="560" class="foreground">                                                                      </text></g><g id="g2"><text x="0" textLength="56" class="foreground">      T</text></g><g id="g3"><text x="0" textLength="72" class="foreground">    -----</text></g><g id="g4"><text x="0" textLength="72" class="foreground">    | &#1513; |</text></g><g id="g5"><text x="0" textLength="72" class="foreground">    \   /</text></g><g id="g6"><text x="0" textLength="56" class="foreground">      v</text></g><g id="g7"><text x="0" textLength="32" class="foreground">    </text></g><g id="g8"><text x="0" textLength="8" class="background"> </text></g><g id="g9"><text x="0" textLength="8" class="background"> </text><text x="8" textLength="552" class="foreground">                                                                     </text></g><g id="g10"><text x="0" textLength="56" class="foreground">       </text></g><g id="g11"><text x="0" textLength="72" class="foreground">         </text></g><g id="g12"><text x="0" textLength="72" class="foreground">    | | |</text></g><g id="g13"><text x="0" textLength="72" class="foreground">    \ | /</text></g><g id="g14"><text x="0" textLength="56" class="foreground">     T </text></g><g id="g15"><text x="0" textLength="72" class="foreground">   ----- </text></g><g id="g16"><text x="0" textLength="72" class="foreground">   | &#1478; | </text></g><g id="g17"><text x="0" textLength="72" class="foreground">   \   / </text></g><g id="g18"><text x="0" textLength="56" class="foreground">     v </text></g><g id="g19"><text x="0" textLength="72" class="foreground">    | &#1492; |</text></g><g id="g20"><text x="0" textLength="64" class="foreground">       T</text></g><g id="g21"><text x="0" textLength="80" class="foreground">     -----</text></g><g id="g22"><text x="0" textLength="80" class="foreground">     | &#1490; |</text></g><g id="g23"><text x="0" textLength="80" class="foreground">     \   /</text></g><g id="g24"><text x="0" textLength="64" class="foreground">       v</text></g><g id="g25"><text x="0" textLength="40" class="foreground">     </text></g><g id="g26"><text x="0" textLength="64" class="foreground">        </text></g><g id="g27"><text x="0" textLength="80" class="foreground">          </text></g><g id="g28"><text x="0" textLength="72" class="foreground">        T</text></g><g id="g29"><text x="0" textLength="88" class="foreground">      -----</text></g><g id="g30"><text x="0" textLength="88" class="foreground">      | | |</text></g><g id="g31"><text x="0" textLength="88" class="foreground">      \ | /</text></g><g id="g32"><text x="0" textLength="72" class="foreground">        v</text></g><g id="g33"><text x="0" textLength="48" class="foreground">      </text></g><g id="g34"><text x="0" textLength="88" class="foreground">           </text></g><g id="g35"><text x="0" textLength="72" class="foreground">       T </text></g><g id="g36"><text x="0" textLength="88" class="foreground">     ----- </text></g><g id="g37"><text x="0" textLength="88" class="foreground">     | &#1513; | </text></g><g id="g38"><text x="0" textLength="88" class="foreground">     \   / </text></g><g id="g39"><text x="0" textLength="72" class="foreground">       v </text></g><g id="g40"><text x="0" textLength="88" class="foreground">      | &#1478; |</text></g><g id="g41"><text x="0" textLength="88" class="foreground">      \   /</text></g><g id="g42"><text x="0" textLength="88" class="foreground">      | &#1492; |</text></g><g id="g43"><text x="0" textLength="88" class="foreground">      | &#1490; |</text></g><g id="g44"><text x="0" textLength="88" class="foreground">     | | | </text></g><g id="g45"><text x="0" textLength="88" class="foreground">     \ | / </text></g><g id="g46"><text x="0" textLength="88" class="foreground">     | &#1478; | </text></g><g id="g47"><text x="0" textLength="88" class="foreground">     | &#1492; | </text></g><g id="g48"><text x="0" textLength="72" class="foreground">      T  </text></g><g id="g49"><text x="0" textLength="88" class="foreground">    -----  </text></g><g id="g50"><text x="0" textLength="88" class="foreground">    | &#1490; |  </text></g><g id="g51"><text x="0" textLength="88" class="foreground">    \   /  </text></g><g id="g52"><text x="0" textLength="72" class="foreground">      v  </text></g><g id="g53"><text x="0" textLength="88" class="foreground">    | | |  </text></g><g id="g54"><text x="0" textLength="88" class="foreground">    \ | /  </text></g><g id="g55"><text x="0" textLength="88" class="foreground">    | &#1513; |  </text></g><g id="g56"><text x="0" textLength="72" class="foreground">     T   </text></g><g id="g57"><text x="0" textLength="88" class="foreground">   -----   </text></g><g id="g58"><text x="0" textLength="88" class="foreground">   | &#1478; |   </text></g><g id="g59"><text x="0" textLength="88" class="foreground">   \   /   </text></g><g id="g60"><text x="0" textLength="72" class="foreground">     v   </text></g><g id="g61"><text x="0" textLength="88" class="foreground">   | | |   </text></g><g id="g62"><text x="0" textLength="88" class="foreground">   \ | /   </text></g><g id="g63"><text x="0" textLength="88" class="foreground">   | &#1492; |   </text></g><g id="g64"><text x="0" textLength="88" class="foreground">    | &#1478; |  </text></g><g id="g65"><text x="0" textLength="16" class="foreground">^C</text><text x="16" textLength="8" class="background"> </text></g></defs><g id="screen_view"><g><use xlink:href="#g1" y="0"/><use xlink:href="#g2" y="17"/><use xlink:href="#g3" y="34"/><use xlink:href="#g4" y="51"/><use xlink:href="#g5" y="68"/><use xlink:href="#g6" y="85"/><use xlink:href="#g7" y="102"/><rect x="0" y="119" width="8" height="17" class="foreground"/><use xlink:href="#g8" y="119"/></g><g><rect x="0" y="170" width="8" height="17" class="foreground"/><use xlink:href="#g9" y="170"/><use xlink:href="#g10" y="187"/><use xlink:href="#g11" y="204"/><use xlink:href="#g11" y="221"/><use xlink:href="#g11" y="238"/><use xlink:href="#g10" y="255"/><use xlink:href="#g7" y="272"/></g><g><use xlink:href="#g1" y="340"/><use xlink:href="#g2" y="357"/><use xlink:href="#g3" y="374"/><use xlink:href="#g12" y="391"/><use xlink:href="#g13" y="408"/><use xlink:href="#g6" y="425"/><use xlink:href="#g7" y="442"/><rect x="0" y="459" width="8" height="17" class="foreground"/><use xlink:href="#g8" y="459"/></g><g><rect x="0" y="510" width="8" height="17" class="foreground"/><use xlink:href="#g9" y="510"/><use xlink:href="#g10" y="527"/><use xlink:href="#g11" y="544"/><use xlink:href="#g11" y="561"/><use xlink:href="#g11" y="578"/><use xlink:href="#g10" y="595"/><use xlink:href="#g7" y="612"/></g><g><use xlink:href="#g1" y="680"/><use xlink:href="#g14" y="697"/><use xlink:href="#g15" y="714"/><use xlink:href="#g16" y="731"/><use xlink:href="#g17" y="748"/><use xlink:href="#g18" y="765"/><use xlink:href="#g7" y="782"/><rect x="0" y="799" width="8" height="17" class="foreground"/><use xlink:href="#g8" y="799"/></g><g><rect x="0" y="850" width="8" height="17" class="foreground"/><use xlink:href="#g9" y="850"/><use xlink:href="#g10" y="867"/><use xlink:href="#g11" y="884"/><use xlink:href="#g11" y="901"/><use xlink:href="#g11" y="918"/><use xlink:href="#g10" y="935"/><use xlink:href="#g7" y="952"/></g><g><use xlink:href="#g1" y="1020"/><use xlink:href="#g2" y="1037"/><use xlink:href="#g3" y="1054"/><use xlink:href="#g12" y="1071"/><use xlink:href="#g13" y="1088"/><use xlink:href="#g6" y="1105"/><use xlink:href="#g7" y="1122"/><rect x="0" y="1139" width="8" height="17" class="foreground"/><use xlink:href="#g8" y="1139"/></g><g><rect x="0" y="1190" width="8" height="17" class="foreground"/><use xlink:href="#g9" y="1190"/><use xlink:href="#g10" y="1207"/><use xlink:href="#g11" y="1224"/><use xlink:href="#g11" y="1241"/><use xlink:href="#g11" y="1258"/><use xlink:href="#g10" y="1275"/><use xlink:href="#g7" y="1292"/></g><g><use xlink:href="#g1" y="1360"/><use xlink:href="#g2" y="1377"/><use xlink:href="#g3" y="1394"/><use xlink:href="#g19" y="1411"/><use xlink:href="#g5" y="1428"/><use xlink:href="#g6" y="1445"/><use xlink:href="#g7" y="1462"/><rect x="0" y="1479" width="8" height="17" class="foreground"/><use xlink:href="#g8" y="1479"/></g><g><rect x="0" y="1530" width="8" height="17" class="foreground"/><use xlink:href="#g9" y="1530"/><use xlink:href="#g10" y="1547"/><use xlink:href="#g11" y="1564"/><use xlink:href="#g11" y="1581"/><use xlink:href="#g11" y="1598"/><use xlink:href="#g10" y="1615"/><use xlink:href="#g7" y="1632"/></g><g><use xlink:href="#g1" y="1700"/><use xlink:href="#g2" y="1717"/><use xlink:href="#g3" y="1734"/><use xlink:href="#g12" y="1751"/><use xlink:href="#g13" y="1768"/><use xlink:href="#g6" y="1785"/><use xlink:href="#g7" y="1802"/><rect x="0" y="1819" width="8" height="17" class="foreground"/><use xlink:href="#g8" y="1819"/></g><g><rect x="0" y="1870" width="8" height="17" class="foreground"/><use xlink:href="#g9" y="1870"/><use xlink:href="#g10" y="1887"/><use xlink:href="#g11" y="1904"/><use xlink:href="#g11" y="1921"/><use xlink:href="#g11" y="1938"/><use xlink:href="#g10" y="1955"/><use xlink:href="#g7" y="1972"/></g><g><use xlink:href="#g1" y="2040"/><use xlink:href="#g20" y="2057"/><use xlink:href="#g21" y="2074"/><use xlink:href="#g22" y="2091"/><use xlink:href="#g23" y="2108"/><use xlink:href="#g24" y="2125"/><use xlink:href="#g25" y="2142"/><rect x="0" y="2159" width="8" height="17" class="foreground"/><use xlink:href="#g8" y="2159"/></g><g><rect x="0" y="2210" width="8" height="17" class="foreground"/><use xlink:href="#g9" y="2210"/><use xlink:href="#g26" y="2227"/><use xlink:href="#g27" y="2244"/><use xlink:href="#g27" y="2261"/><use xlink:href="#g27" y="2278"/><use xlink:href="#g26" y="2295"/><use xlink:href="#g25" y="2312"/></g><g><use xlink:href="#g1" y="2380"/><use xlink:href="#g28" y="2397"/><use xlink:href="#g29" y="2414"/><use xlink:href="#g30" y="2431"/><use xlink:href="#g31" y="2448"/><use xlink:href="#g32" y="2465"/><use xlink:href="#g33" y="2482"/><rect x="0" y="2499" width="8" height="17" class="foreground"/><use xlink:href="#g8" y="2499"/></g><g><rect x="0" y="2550" width="8" height="17" class="foreground"/><use xlink:href="#g9" y="2550"/><use xlink:href="#g11" y="2567"/><use xlink:href="#g34" y="2584"/><use xlink:href="#g34" y="2601"/><use xlink:href="#g34" y="2618"/><use xlink:href="#g11" y="2635"/><use xlink:href="#g33" y="2652"/></g><g><use xlink:href="#g1" y="2720"/><use xlink:href="#g35" y="2737"/><use xlink:href="#g36" y="2754"/><use xlink:href="#g37" y="2771"/><use xlink:href="#g38" y="2788"/><use xlink:href="#g39" y="2805"/><use xlink:href="#g33" y="2822"/><rect x="0" y="2839" width="8" height="17" class="foreground"/><use xlink:href="#g8" y="2839"/></g><g><rect x="0" y="2890" width="8" height="17" class="foreground"/><use xlink:href="#g9" y="2890"/><use xlink:href="#g11" y="2907"/><use xlink:href="#g34" y="2924"/><use xlink:href="#g34" y="2941"/><use xlink:href="#g34" y="2958"/><use xlink:href="#g11" y="2975"/><use xlink:href="#g33" y="2992"/></g><g><use xlink:href="#g1" y="3060"/><use xlink:href="#g28" y="3077"/><use xlink:href="#g29" y="3094"/><use xlink:href="#g30" y="3111"/><use xlink:href="#g31" y="3128"/><use xlink:href="#g32" y="3145"/><use xlink:href="#g33" y="3162"/><rect x="0" y="3179" width="8" height="17" class="foreground"/><use xlink:href="#g8" y="3179"/></g><g><rect x="0" y="3230" width="8" height="17" class="foreground"/><use xlink:href="#g9" y="3230"/><use xlink:href="#g11" y="3247"/><use xlink:href="#g34" y="3264"/><use xlink:href="#g34" y="3281"/><use xlink:href="#g34" y="3298"/><use xlink:href="#g11" y="3315"/><use xlink:href="#g33" y="3332"/></g><g><use xlink:href="#g1" y="3400"/><use xlink:href="#g28" y="3417"/><use xlink:href="#g29" y="3434"/><use xlink:href="#g40" y="3451"/><use xlink:href="#g41" y="3468"/><use xlink:href="#g32" y="3485"/><use xlink:href="#g33" y="3502"/><rect x="0" y="3519" width="8" height="17" class="foreground"/><use xlink:href="#g8" y="3519"/></g><g><rect x="0" y="3570" width="8" height="17" class="foreground"/><use xlink:href="#g9" y="3570"/><use xlink:href="#g11" y="3587"/><use xlink:href="#g34" y="3604"/><use xlink:href="#g34" y="3621"/><use xlink:href="#g34" y="3638"/><use xlink:href="#g11" y="3655"/><use xlink:href="#g33" y="3672"/></g><g><use xlink:href="#g1" y="3740"/><use xlink:href="#g28" y="3757"/><use xlink:href="#g29" y="3774"/><use xlink:href="#g30" y="3791"/><use xlink:href="#g31" y="3808"/><use xlink:href="#g32" y="3825"/><use xlink:href="#g33" y="3842"/><rect x="0" y="3859" width="8" height="17" class="foreground"/><use xlink:href="#g8" y="3859"/></g><g><rect x="0" y="3910" width="8" height="17" class="foreground"/><use xlink:href="#g9" y="3910"/><use xlink:href="#g11" y="3927"/><use xlink:href="#g34" y="3944"/><use xlink:href="#g34" y="3961"/><use xlink:href="#g34" y="3978"/><use xlink:href="#g11" y="3995"/><use xlink:href="#g33" y="4012"/></g><g><use xlink:href="#g1" y="4080"/><use xlink:href="#g28" y="4097"/><use xlink:href="#g29" y="4114"/><use xlink:href="#g42" y="4131"/><use xlink:href="#g41" y="4148"/><use xlink:href="#g32" y="4165"/><use xlink:href="#g33" y="4182"/><rect x="0" y="4199" width="8" height="17" class="foreground"/><use xlink:href="#g8" y="4199"/></g><g><rect x="0" y="4250" width="8" height="17" class="foreground"/><use xlink:href="#g9" y="4250"/><use xlink:href="#g11" y="4267"/><use xlink:href="#g34" y="4284"/><use xlink:href="#g34" y="4301"/><use xlink:href="#g34" y="4318"/><use xlink:href="#g11" y="4335"/><use xlink:href="#g33" y="4352"/></g><g><use xlink:href="#g1" y="4420"/><use xlink:href="#g28" y="4437"/><use xlink:href="#g29" y="4454"/><use xlink:href="#g30" y="4471"/><use xlink:href="#g31" y="4488"/><use xlink:href="#g32" y="4505"/><use xlink:href="#g33" y="4522"/><rect x="0" y="4539" width="8" height="17" class="foreground"/><use xlink:href="#g8" y="4539"/></g><g><rect x="0" y="4590" width="8" height="17" class="foreground"/><use xlink:href="#g9" y="4590"/><use xlink:href="#g11" y="4607"/><use xlink:href="#g34" y="4624"/><use xlink:href="#g34" y="4641"/><use xlink:href="#g34" y="4658"/><use xlink:href="#g11" y="4675"/><use xlink:href="#g33" y="4692"/></g><g><use xlink:href="#g1" y="4760"/><use xlink:href="#g28" y="4777"/><use xlink:href="#g29" y="4794"/><use xlink:href="#g43" y="4811"/><use xlink:href="#g41" y="4828"/><use xlink:href="#g32" y="4845"/><use xlink:href="#g33" y="4862"/><rect x="0" y="4879" width="8" height="17" class="foreground"/><use xlink:href="#g8" y="4879"/></g><g><rect x="0" y="4930" width="8" height="17" class="foreground"/><use xlink:href="#g9" y="4930"/><use xlink:href="#g11" y="4947"/><use xlink:href="#g34" y="4964"/><use xlink:href="#g34" y="4981"/><use xlink:href="#g34" y="4998"/><use xlink:href="#g11" y="5015"/><use xlink:href="#g33" y="5032"/></g><g><use xlink:href="#g1" y="5100"/><use xlink:href="#g35" y="5117"/><use xlink:href="#g36" y="5134"/><use xlink:href="#g44" y="5151"/><use xlink:href="#g45" y="5168"/><use xlink:href="#g39" y="5185"/><use xlink:href="#g33" y="5202"/><rect x="0" y="5219" width="8" height="17" class="foreground"/><use xlink:href="#g8" y="5219"/></g><g><rect x="0" y="5270" width="8" height="17" class="foreground"/><use xlink:href="#g9" y="5270"/><use xlink:href="#g11" y="5287"/><use xlink:href="#g34" y="5304"/><use xlink:href="#g34" y="5321"/><use xlink:href="#g34" y="5338"/><use xlink:href="#g11" y="5355"/><use xlink:href="#g33" y="5372"/></g><g><use xlink:href="#g1" y="5440"/><use xlink:href="#g35" y="5457"/><use xlink:href="#g36" y="5474"/><use xlink:href="#g37" y="5491"/><use xlink:href="#g38" y="5508"/><use xlink:href="#g39" y="5525"/><use xlink:href="#g33" y="5542"/><rect x="0" y="5559" width="8" height="17" class="foreground"/><use xlink:href="#g8" y="5559"/></g><g><rect x="0" y="5610" width="8" height="17" class="foreground"/><use xlink:href="#g9" y="5610"/><use xlink:href="#g11" y="5627"/><use xlink:href="#g34" y="5644"/><use xlink:href="#g34" y="5661"/><use xlink:href="#g34" y="5678"/><use xlink:href="#g11" y="5695"/><use xlink:href="#g33" y="5712"/></g><g><use xlink:href="#g1" y="5780"/><use xlink:href="#g35" y="5797"/><use xlink:href="#g36" y="5814"/><use xlink:href="#g44" y="5831"/><use xlink:href="#g45" y="5848"/><use xlink:href="#g39" y="5865"/><use xlink:href="#g33" y="5882"/><rect x="0" y="5899" width="8" height="17" class="foreground"/><use xlink:href="#g8" y="5899"/></g><g><use xlink:href="#g1" y="5950"/><use xlink:href="#g35" y="5967"/><use xlink:href="#g36" y="5984"/><use xlink:href="#g46" y="6001"/><use xlink:href="#g38" y="6018"/><use xlink:href="#g39" y="6035"/><use xlink:href="#g33" y="6052"/><rect x="0" y="6069" width="8" height="17" class="foreground"/><use xlink:href="#g8" y="6069"/></g><g><rect x="0" y="6120" width="8" height="17" class="foreground"/><use xlink:href="#g9" y="6120"/><use xlink:href="#g11" y="6137"/><use xlink:href="#g34" y="6154"/><use xlink:href="#g34" y="6171"/><use xlink:href="#g34" y="6188"/><use xlink:href="#g11" y="6205"/><use xlink:href="#g33" y="6222"/></g><g><use xlink:href="#g1" y="6290"/><use xlink:href="#g35" y="6307"/><use xlink:href="#g36" y="6324"/><use xlink:href="#g44" y="6341"/><use xlink:href="#g45" y="6358"/><use xlink:href="#g39" y="6375"/><use xlink:href="#g33" y="6392"/><rect x="0" y="6409" width="8" height="17" class="foreground"/><use xlink:href="#g8" y="6409"/></g><g><rect x="0" y="6460" width="8" height="17" class="foreground"/><use xlink:href="#g9" y="6460"/><use xlink:href="#g11" y="6477"/><use xlink:href="#g34" y="6494"/><use xlink:href="#g34" y="6511"/><use xlink:href="#g34" y="6528"/><use xlink:href="#g11" y="6545"/><use xlink:href="#g33" y="6562"/></g><g><use xlink:href="#g1" y="6630"/><use xlink:href="#g35" y="6647"/><use xlink:href="#g36" y="6664"/><use xlink:href="#g47" y="6681"/><use xlink:href="#g38" y="6698"/><use xlink:href="#g39" y="6715"/><use xlink:href="#g33" y="6732"/><rect x="0" y="6749" width="8" height="17" class="foreground"/><use xlink:href="#g8" y="6749"/></g><g><rect x="0" y="6800" width="8" height="17" class="foreground"/><use xlink:href="#g9" y="6800"/><use xlink:href="#g11" y="6817"/><use xlink:href="#g34" y="6834"/><use xlink:href="#g34" y="6851"/><use xlink:href="#g34" y="6868"/><use xlink:href="#g11" y="6885"/><use xlink:href="#g33" y="6902"/></g><g><use xlink:href="#g1" y="6970"/><use xlink:href="#g35" y="6987"/><use xlink:href="#g36" y="7004"/><use xlink:href="#g44" y="7021"/><use xlink:href="#g45" y="7038"/><use xlink:href="#g39" y="7055"/><use xlink:href="#g33" y="7072"/><rect x="0" y="7089" width="8" height="17" class="foreground"/><use xlink:href="#g8" y="7089"/></g><g><rect x="0" y="7140" width="8" height="17" class="foreground"/><use xlink:href="#g9" y="7140"/><use xlink:href="#g11" y="7157"/><use xlink:href="#g34" y="7174"/><use xlink:href="#g34" y="7191"/><use xlink:href="#g34" y="7208"/><use xlink:href="#g11" y="7225"/><use xlink:href="#g33" y="7242"/></g><g><use xlink:href="#g1" y="7310"/><use xlink:href="#g48" y="7327"/><use xlink:href="#g49" y="7344"/><use xlink:href="#g50" y="7361"/><use xlink:href="#g51" y="7378"/><use xlink:href="#g52" y="7395"/><use xlink:href="#g33" y="7412"/><rect x="0" y="7429" width="8" height="17" class="foreground"/><use xlink:href="#g8" y="7429"/></g><g><rect x="0" y="7480" width="8" height="17" class="foreground"/><use xlink:href="#g9" y="7480"/><use xlink:href="#g11" y="7497"/><use xlink:href="#g34" y="7514"/><use xlink:href="#g34" y="7531"/><use xlink:href="#g34" y="7548"/><use xlink:href="#g11" y="7565"/><use xlink:href="#g33" y="7582"/></g><g><use xlink:href="#g1" y="7650"/><use xlink:href="#g48" y="7667"/><use xlink:href="#g49" y="7684"/><use xlink:href="#g53" y="7701"/><use xlink:href="#g54" y="7718"/><use xlink:href="#g52" y="7735"/><use xlink:href="#g33" y="7752"/><rect x="0" y="7769" width="8" height="17" class="foreground"/><use xlink:href="#g8" y="7769"/></g><g><rect x="0" y="7820" width="8" height="17" class="foreground"/><use xlink:href="#g9" y="7820"/><use xlink:href="#g11" y="7837"/><use xlink:href="#g34" y="7854"/><use xlink:href="#g34" y="7871"/><use xlink:href="#g34" y="7888"/><use xlink:href="#g11" y="7905"/><use xlink:href="#g33" y="7922"/></g><g><use xlink:href="#g1" y="7990"/><use xlink:href="#g48" y="8007"/><use xlink:href="#g49" y="8024"/><use xlink:href="#g55" y="8041"/><use xlink:href="#g51" y="8058"/><use xlink:href="#g52" y="8075"/><use xlink:href="#g33" y="8092"/><rect x="0" y="8109" width="8" height="17" class="foreground"/><use xlink:href="#g8" y="8109"/></g><g><rect x="0" y="8160" width="8" height="17" class="foreground"/><use xlink:href="#g9" y="8160"/><use xlink:href="#g11" y="8177"/><use xlink:href="#g34" y="8194"/><use xlink:href="#g34" y="8211"/><use xlink:href="#g34" y="8228"/><use xlink:href="#g11" y="8245"/><use xlink:href="#g33" y="8262"/></g><g><use xlink:href="#g1" y="8330"/><use xlink:href="#g48" y="8347"/><use xlink:href="#g49" y="8364"/><use xlink:href="#g53" y="8381"/><use xlink:href="#g54" y="8398"/><use xlink:href="#g52" y="8415"/><use xlink:href="#g33" y="8432"/><rect x="0" y="8449" width="8" height="17" class="foreground"/><use xlink:href="#g8" y="8449"/></g><g><rect x="0" y="8500" width="8" height="17" class="foreground"/><use xlink:href="#g9" y="8500"/><use xlink:href="#g11" y="8517"/><use xlink:href="#g34" y="8534"/><use xlink:href="#g34" y="8551"/><use xlink:href="#g34" y="8568"/><use xlink:href="#g11" y="8585"/><use xlink:href="#g33" y="8602"/></g><g><use xlink:href="#g1" y="8670"/><use xlink:href="#g56" y="8687"/><use xlink:href="#g57" y="8704"/><use xlink:href="#g58" y="8721"/><use xlink:href="#g59" y="8738"/><use xlink:href="#g60" y="8755"/><use xlink:href="#g33" y="8772"/><rect x="0" y="8789" width="8" height="17" class="foreground"/><use xlink:href="#g8" y="8789"/></g><g><rect x="0" y="8840" width="8" height="17" class="foreground"/><use xlink:href="#g9" y="8840"/><use xlink:href="#g11" y="8857"/><use xlink:href="#g34" y="8874"/><use xlink:href="#g34" y="8891"/><use xlink:href="#g34" y="8908"/><use xlink:href="#g11" y="8925"/><use xlink:href="#g33" y="8942"/></g><g><use xlink:href="#g1" y="9010"/><use xlink:href="#g56" y="9027"/><use xlink:href="#g57" y="9044"/><use xlink:href="#g61" y="9061"/><use xlink:href="#g62" y="9078"/><use xlink:href="#g60" y="9095"/><use xlink:href="#g33" y="9112"/><rect x="0" y="9129" width="8" height="17" class="foreground"/><use xlink:href="#g8" y="9129"/></g><g><rect x="0" y="9180" width="8" height="17" class="foreground"/><use xlink:href="#g9" y="9180"/><use xlink:href="#g11" y="9197"/><use xlink:href="#g34" y="9214"/><use xlink:href="#g34" y="9231"/><use xlink:href="#g34" y="9248"/><use xlink:href="#g11" y="9265"/><use xlink:href="#g33" y="9282"/></g><g><use xlink:href="#g1" y="9350"/><use xlink:href="#g56" y="9367"/><use xlink:href="#g57" y="9384"/><use xlink:href="#g63" y="9401"/><use xlink:href="#g59" y="9418"/><use xlink:href="#g60" y="9435"/><use xlink:href="#g33" y="9452"/><rect x="0" y="9469" width="8" height="17" class="foreground"/><use xlink:href="#g8" y="9469"/></g><g><rect x="0" y="9520" width="8" height="17" class="foreground"/><use xlink:href="#g9" y="9520"/><use xlink:href="#g11" y="9537"/><use xlink:href="#g34" y="9554"/><use xlink:href="#g34" y="9571"/><use xlink:href="#g34" y="9588"/><use xlink:href="#g11" y="9605"/><use xlink:href="#g33" y="9622"/></g><g><use xlink:href="#g1" y="9690"/><use xlink:href="#g48" y="9707"/><use xlink:href="#g49" y="9724"/><use xlink:href="#g53" y="9741"/><use xlink:href="#g54" y="9758"/><use xlink:href="#g52" y="9775"/><use xlink:href="#g33" y="9792"/><rect x="0" y="9809" width="8" height="17" class="foreground"/><use xlink:href="#g8" y="9809"/></g><g><rect x="0" y="9860" width="8" height="17" class="foreground"/><use xlink:href="#g9" y="9860"/><use xlink:href="#g11" y="9877"/><use xlink:href="#g34" y="9894"/><use xlink:href="#g34" y="9911"/><use xlink:href="#g34" y="9928"/><use xlink:href="#g11" y="9945"/><use xlink:href="#g33" y="9962"/></g><g><use xlink:href="#g1" y="10030"/><use xlink:href="#g48" y="10047"/><use xlink:href="#g49" y="10064"/><use xlink:href="#g50" y="10081"/><use xlink:href="#g51" y="10098"/><use xlink:href="#g52" y="10115"/><use xlink:href="#g33" y="10132"/><rect x="0" y="10149" width="8" height="17" class="foreground"/><use xlink:href="#g8" y="10149"/></g><g><rect x="0" y="10200" width="8" height="17" class="foreground"/><use xlink:href="#g9" y="10200"/><use xlink:href="#g11" y="10217"/><use xlink:href="#g34" y="10234"/><use xlink:href="#g34" y="10251"/><use xlink:href="#g34" y="10268"/><use xlink:href="#g11" y="10285"/><use xlink:href="#g33" y="10302"/></g><g><use xlink:href="#g1" y="10370"/><use xlink:href="#g48" y="10387"/><use xlink:href="#g49" y="10404"/><use xlink:href="#g53" y="10421"/><use xlink:href="#g54" y="10438"/><use xlink:href="#g52" y="10455"/><use xlink:href="#g33" y="10472"/><rect x="0" y="10489" width="8" height="17" class="foreground"/><use xlink:href="#g8" y="10489"/></g><g><rect x="0" y="10540" width="8" height="17" class="foreground"/><use xlink:href="#g9" y="10540"/><use xlink:href="#g11" y="10557"/><use xlink:href="#g34" y="10574"/><use xlink:href="#g34" y="10591"/><use xlink:href="#g34" y="10608"/><use xlink:href="#g11" y="10625"/><use xlink:href="#g33" y="10642"/></g><g><use xlink:href="#g1" y="10710"/><use xlink:href="#g48" y="10727"/><use xlink:href="#g49" y="10744"/><use xlink:href="#g55" y="10761"/><use xlink:href="#g51" y="10778"/><use xlink:href="#g52" y="10795"/><use xlink:href="#g33" y="10812"/><rect x="0" y="10829" width="8" height="17" class="foreground"/><use xlink:href="#g8" y="10829"/></g><g><rect x="0" y="10880" width="8" height="17" class="foreground"/><use xlink:href="#g9" y="10880"/><use xlink:href="#g11" y="10897"/><use xlink:href="#g34" y="10914"/><use xlink:href="#g34" y="10931"/><use xlink:href="#g34" y="10948"/><use xlink:href="#g11" y="10965"/><use xlink:href="#g33" y="10982"/></g><g><use xlink:href="#g1" y="11050"/><use xlink:href="#g56" y="11067"/><use xlink:href="#g57" y="11084"/><use xlink:href="#g61" y="11101"/><use xlink:href="#g62" y="11118"/><use xlink:href="#g60" y="11135"/><use xlink:href="#g33" y="11152"/><rect x="0" y="11169" width="8" height="17" class="foreground"/><use xlink:href="#g8" y="11169"/></g><g><rect x="0" y="11220" width="8" height="17" class="foreground"/><use xlink:href="#g9" y="11220"/><use xlink:href="#g11" y="11237"/><use xlink:href="#g34" y="11254"/><use xlink:href="#g34" y="11271"/><use xlink:href="#g34" y="11288"/><use xlink:href="#g11" y="11305"/><use xlink:href="#g33" y="11322"/></g><g><use xlink:href="#g1" y="11390"/><use xlink:href="#g48" y="11407"/><use xlink:href="#g49" y="11424"/><use xlink:href="#g64" y="11441"/><use xlink:href="#g51" y="11458"/><use xlink:href="#g52" y="11475"/><use xlink:href="#g33" y="11492"/><rect x="0" y="11509" width="8" height="17" class="foreground"/><use xlink:href="#g8" y="11509"/></g><g><use xlink:href="#g1" y="11560"/><use xlink:href="#g48" y="11577"/><use xlink:href="#g49" y="11594"/><use xlink:href="#g53" y="11611"/><use xlink:href="#g54" y="11628"/><use xlink:href="#g52" y="11645"/><use xlink:href="#g33" y="11662"/><rect x="0" y="11679" width="8" height="17" class="foreground"/><use xlink:href="#g8" y="11679"/></g><g><rect x="0" y="11730" width="8" height="17" class="foreground"/><use xlink:href="#g9" y="11730"/><use xlink:href="#g11" y="11747"/><use xlink:href="#g34" y="11764"/><use xlink:href="#g34" y="11781"/><use xlink:href="#g34" y="11798"/><use xlink:href="#g11" y="11815"/><use xlink:href="#g33" y="11832"/></g><g><use xlink:href="#g1" y="11900"/><use xlink:href="#g35" y="11917"/><use xlink:href="#g36" y="11934"/><use xlink:href="#g47" y="11951"/><use xlink:href="#g38" y="11968"/><use xlink:href="#g39" y="11985"/><use xlink:href="#g33" y="12002"/><rect x="0" y="12019" width="8" height="17" class="foreground"/><use xlink:href="#g8" y="12019"/></g><g><rect x="0" y="12070" width="8" height="17" class="foreground"/><use xlink:href="#g9" y="12070"/><use xlink:href="#g11" y="12087"/><use xlink:href="#g34" y="12104"/><use xlink:href="#g34" y="12121"/><use xlink:href="#g34" y="12138"/><use xlink:href="#g11" y="12155"/><use xlink:href="#g33" y="12172"/></g><g><use xlink:href="#g1" y="12240"/><use xlink:href="#g48" y="12257"/><use xlink:href="#g49" y="12274"/><use xlink:href="#g53" y="12291"/><use xlink:href="#g54" y="12308"/><use xlink:href="#g52" y="12325"/><use xlink:href="#g33" y="12342"/><rect x="0" y="12359" width="8" height="17" class="foreground"/><use xlink:href="#g8" y="12359"/></g><g><rect x="0" y="12410" width="8" height="17" class="foreground"/><use xlink:href="#g9" y="12410"/><use xlink:href="#g11" y="12427"/><use xlink:href="#g34" y="12444"/><use xlink:href="#g34" y="12461"/><use xlink:href="#g34" y="12478"/><use xlink:href="#g11" y="12495"/><use xlink:href="#g33" y="12512"/></g><g><use xlink:href="#g1" y="12580"/><use xlink:href="#g48" y="12597"/><use xlink:href="#g49" y="12614"/><use xlink:href="#g50" y="12631"/><use xlink:href="#g51" y="12648"/><use xlink:href="#g52" y="12665"/><use xlink:href="#g33" y="12682"/><rect x="0" y="12699" width="8" height="17" class="foreground"/><use xlink:href="#g8" y="12699"/></g><g><use xlink:href="#g1" y="12750"/><use xlink:href="#g48" y="12767"/><use xlink:href="#g49" y="12784"/><use xlink:href="#g50" y="12801"/><use xlink:href="#g51" y="12818"/><use xlink:href="#g52" y="12835"/><use xlink:href="#g33" y="12852"/><rect x="16" y="12869" width="8" height="17" class="foreground"/><use xlink:href="#g65" y="12869"/></g></g></svg>
</svg>